<svg xmlns="http://www.w3.org/2000/svg" width="184.107" height="184.106" viewBox="0 0 184.107 184.106"><path fill="#FF5252" d="M125.683 119.894v8.852c0 2.8 2.268 5.065 5.064 5.065s5.064-2.265 5.064-5.064v-11.518l-.024.026-10.103 2.64z"/><path fill="#FFF" d="M93.7 184.086v-.68l-.156.682c.052 0 .104 0 .156-.002z"/><path fill="#8B5E3C" d="M44.953 110.45v-.003l-2.667 11.21.056-.23M37.876 140.207l.053-.23-5.318 22.36c16.04 13.578 36.782 21.77 59.442 21.77.498 0 .994-.01 1.49-.018l.156-.683v-43.2H37.876z"/><path fill="#FFF" d="M150.444 77.453c.07.93.117 1.86.135 2.786-4.427-2.423-8.493-5.487-12.054-9.107l10.44-2.728c.24.933.445 1.866.63 2.8-.185-.934-.39-1.867-.63-2.8L83.76 85.44l26.23-6.85 1.407 45.035-9.707 2.536 23.992-6.267 10.104-2.64.025-.026c10.17-10.35 15.736-24.79 14.634-39.774zM149.65 71.462c.174.907.322 1.813.447 2.72-.124-.906-.272-1.812-.448-2.72zM150.14 74.495c.12.906.218 1.812.29 2.715-.073-.903-.17-1.81-.29-2.715zM93.7 128.25l5.06-1.323-5.06 1.322"/><path fill="#231F20" d="M138.526 71.133c3.56 3.62 7.627 6.684 12.053 9.106-.02-.927-.066-1.856-.136-2.787l-.016-.243c-.07-.903-.17-1.81-.288-2.715l-.043-.313c-.125-.905-.273-1.812-.448-2.72l-.053-.257c-.186-.934-.392-1.867-.63-2.8l-10.44 2.728z"/><path fill="#FF5252" d="M40.494 128.917l-2.565 11.06-.054.23H93.7v-11.29"/><path fill="#C49A6C" d="M109.99 78.59l-26.23 6.85 3.432 12.834c3.137 11.732-3.83 23.785-15.56 26.923-11.455 3.063-23.212-3.51-26.68-14.747l-2.61 10.978-.055.228-1.792 7.26H93.7v-.666l5.06-1.32.646-.17 2.285-.596 9.708-2.536-1.41-45.04zM96.243 90.13c2.056-.537 4.158.694 4.693 2.75.54 2.056-.69 4.158-2.748 4.695-2.058.537-4.16-.694-4.696-2.75-.54-2.055.693-4.158 2.75-4.695z"/><path fill="#603913" d="M71.632 125.197c11.73-3.138 18.697-15.19 15.56-26.923L83.76 85.44l-3.695-13.816-42.482 11.36 7.13 26.65c.072.274.155.544.24.813v.003c3.467 11.236 15.224 17.81 26.68 14.747z"/><circle fill="#231F20" cx="97.216" cy="93.855" r="3.847"/><path fill="#FFF" d="M115.803 56.07c-.016-.09-.025-.18-.038-.27.012.09.022.18.038.27zM115.695 55.162c-.008-.105-.014-.21-.018-.314.005.104.01.21.018.314zM115.673 54.223c.002-.09 0-.184.006-.275-.006.092-.005.183-.007.275zM127.08 64.193c-.658.105-1.315.142-1.962.115.647.027 1.304-.01 1.963-.115zM126.468 57.96c5.266-1.4 8.402-6.803 7.002-12.073l32.543-8.646c-3.003-4.044-6.33-7.832-9.943-11.328l-26.066 6.927c-1.4-5.27-6.81-8.404-12.074-7.004-5.267 1.4-8.4 6.802-7.004 12.07 1.398 5.266 6.81 8.402 12.07 7.004-4.213 1.12-7.057 4.81-7.308 8.94 2.273 3.447 6.563 5.228 10.78 4.11zM115.995 56.98c1.138 4.28 4.92 7.152 9.123 7.328-4.204-.176-7.985-3.05-9.123-7.33zM135.394 54.862c-.05 1.186-.323 2.333-.772 3.402.448-1.07.722-2.217.772-3.402z"/><path fill="#D1D3D4" d="M169.765 42.692c-1.187-1.864-2.438-3.682-3.752-5.452l-32.543 8.646c1.4 5.27-1.736 10.672-7.002 12.073-4.217 1.117-8.507-.664-10.78-4.113l-.007-.01v.11c-.006.09-.005.184-.007.275-.005.208-.004.415.005.624.004.105.01.21.018.314.016.212.04.424.07.637.012.09.02.182.037.272.05.302.11.604.192.907 1.138 4.28 4.92 7.153 9.123 7.33.646.026 1.304-.01 1.963-.116.33-.052.66-.122.99-.21 3.07-.814 5.406-2.998 6.55-5.718.45-1.07.724-2.216.773-3.402.04-.97-.063-1.962-.324-2.95l34.695-9.218z"/><path fill="#FF5252" d="M48.253 45.843c0 3.52-2.854 6.37-6.37 6.37-3.522 0-6.373-2.85-6.373-6.37s2.85-6.37 6.372-6.37c3.517 0 6.37 2.85 6.37 6.37"/><text transform="translate(50.932 50.213)"><tspan x="0" y="0" fill="#231F20" font-family="'ProximaNova-Black'" font-size="13">RE</tspan><tspan x="16.588" y="0" fill="#231F20" font-family="'ProximaNova-Black'" font-size="13">C</tspan></text><path fill="none" stroke="#231F20" stroke-width="3" stroke-miterlimit="10" d="M153.808 131.05v18.596h-18.594m18.594-96.59V34.46h-18.596m-86.318 0H30.3v18.596m0 77.996v18.594h18.595"/></svg>