<svg xmlns="http://www.w3.org/2000/svg" width="184.108" height="184.272" viewBox="0 0 184.108 184.272"><path fill="#FF5252" d="M121.12 139.715c0 2.8 2.267 5.064 5.064 5.064 2.796 0 5.063-2.267 5.063-5.065v-10.798H121.12v10.798z"/><path fill="#FFF" d="M93.703 184.085v-.68l-.155.682c.052 0 .103 0 .155-.002z"/><path fill="#8B5E3C" d="M37.877 140.206l-5.263 22.13c16.04 13.578 36.78 21.77 59.44 21.77.5 0 .996-.01 1.493-.018l.155-.68v-43.202H37.877z"/><path fill="#FFF" d="M155.988 91.248c-.108.863-.236 1.72-.388 2.568.152-.85.28-1.705.388-2.568zM155.525 94.217c-.157.844-.33 1.682-.53 2.51.2-.828.373-1.666.53-2.51zM156.287 88.16c-.058.882-.14 1.757-.242 2.626.1-.87.184-1.744.242-2.626zM89.28 84.984v.002h26.835l-10.02 43.93h25.209c11.697-6.98 20.388-18.473 23.67-32.076-3.673-3.462-6.832-7.455-9.36-11.856h10.79H89.28z"/><path fill="#FFF" d="M156.402 84.985c-.005.938-.04 1.868-.095 2.792.054-.924.09-1.854.095-2.792z"/><path fill="#231F20" d="M154.972 96.84c.01-.037.016-.075.024-.112.198-.83.372-1.667.53-2.51.023-.135.05-.268.074-.402.15-.85.28-1.706.388-2.568.02-.154.04-.308.057-.462.102-.87.185-1.744.242-2.626.008-.127.014-.255.02-.382.055-.925.09-1.855.096-2.792h-10.79c2.528 4.4 5.687 8.392 9.36 11.854z"/><path fill="#FF5252" d="M40.495 128.917l-2.618 11.29h55.826v-11.29H78.705"/><path fill="#C49A6C" d="M116.115 84.986H89.28v18.188c0 12.144-9.846 21.988-21.99 21.988-10.78 0-19.748-7.768-21.62-18.013l-5.175 21.766h65.598l10.022-43.93z"/><path fill="#603913" d="M67.29 125.163c12.144 0 21.99-9.844 21.99-21.988V75.587H45.305v27.588c0 1.358.13 2.685.365 3.975 1.872 10.245 10.838 18.013 21.62 18.013z"/><path fill="none" stroke="#231F20" stroke-width="2.835" stroke-linecap="round" stroke-linejoin="round" stroke-miterlimit="10" d="M103.797 96.528c-.344-1.92-2.014-3.38-4.03-3.38s-3.69 1.46-4.032 3.38"/><g fill="#FF5252"><path d="M61.242 34.84c-3.327-1.544-7.274-.1-8.817 3.228l-1.767 3.802-3.874-1.8c-3.327-1.544-7.276-.097-8.818 3.228-1.546 3.328-.1 7.274 3.227 8.82l9.65 4.477 4.566 2.118 1.703.792 2.877-6.195 4.478-9.65c1.545-3.328.1-7.276-3.226-8.82zM146.134 44.446c-1.303-3.428-5.14-5.15-8.568-3.845l-3.917 1.49-1.522-3.992c-1.303-3.43-5.14-5.15-8.565-3.846-3.43 1.305-5.15 5.14-3.847 8.57l3.784 9.94 1.792 4.705.667 1.757 6.385-2.427 9.942-3.784c3.43-1.304 5.15-5.14 3.847-8.567z"/></g><g><linearGradient id="a" gradientUnits="userSpaceOnUse" y1="256.396" x2="1" y2="256.396" gradientTransform="matrix(-26.057 -26.057 -26.057 26.057 6786.046 -6629.038)"><stop offset="0" stop-color="#F79D09"/><stop offset=".995" stop-color="#F7CA09"/><stop offset="1" stop-color="#F7CA09"/></linearGradient><circle fill="url(#a)" cx="92.053" cy="38.886" r="18.425"/><circle fill="none" stroke="#FFF" stroke-width="2.753" stroke-miterlimit="10" cx="92.054" cy="38.886" r="14.173"/><path fill="#FFF" d="M83.047 36.585h2.692v9.123h3.78v-9.123h2.69V33.44h-9.163M101.857 36.585V33.44h-8.12V45.71h3.782v-4.673h3.53v-2.92h-3.53v-1.53"/></g></svg>