<svg xmlns="http://www.w3.org/2000/svg" xmlns:xlink="http://www.w3.org/1999/xlink" width="184.108" height="184.108" viewBox="0 0 184.108 184.108"><defs><circle id="d" cx="92.053" cy="92.054" r="92.054"/></defs><clipPath id="e"><use xlink:href="#d" overflow="visible"/></clipPath><path clip-path="url(#e)" fill="#F4CFB3" d="M66.62 89L85.77 60.75h14.535L119.447 89M57.1 56.992h36.794v35.02H57.1z"/><path clip-path="url(#e)" fill="#F4CFB3" d="M101.186 64.282c0 4.025-3.266 7.29-7.29 7.29s-7.29-3.265-7.29-7.29c0-4.027 3.264-7.29 7.29-7.29s7.29 3.263 7.29 7.29M72.018 90.058l11.08-16.35h8.414l11.082 16.35M78.814 105.522V91.637h-14.58v13.885c0 4.025 3.264 7.29 7.29 7.29s7.29-3.265 7.29-7.29"/><g opacity=".3" clip-path="url(#e)"><defs><path id="f" d="M72.017 73.708h30.577v16.35H72.017z"/></defs><clipPath id="g"><use xlink:href="#f" overflow="visible"/></clipPath><path clip-path="url(#g)" fill="#231F20" d="M72.018 90.058l11.08-16.35h8.414l11.082 16.35"/></g><g opacity=".3" clip-path="url(#e)"><defs><path id="h" d="M64.234 91.638h14.58v21.173h-14.58z"/></defs><clipPath id="i"><use xlink:href="#h" overflow="visible"/></clipPath><path clip-path="url(#i)" fill="#231F20" d="M78.814 105.522V91.637h-14.58v13.885c0 4.025 3.264 7.29 7.29 7.29s7.29-3.265 7.29-7.29"/></g><path clip-path="url(#e)" fill="#7200E0" d="M160.248 131.392c0 2.266-1.787 4.102-3.988 4.102H75.512c-2.2 0-3.99-1.836-3.99-4.102V81.5c0-2.265 1.79-4.1 3.99-4.1h80.748c2.2 0 3.988 1.835 3.988 4.1v49.892z"/><path clip-path="url(#e)" fill="#414042" d="M71.61 111.29h88.722v14.476H71.61z"/><path clip-path="url(#e)" fill="#F4CFB3" d="M59.525 105.465h-72.248V67.77l64.19-10.78h8.058"/><path clip-path="url(#e)" fill="#F4CFB3" d="M97.188 90.886H51.466v14.58h45.72c4.028 0 7.292-3.264 7.292-7.29s-3.263-7.29-7.29-7.29"/><path clip-path="url(#e)" fill="#FFF" d="M93.895 102.226h4.05c2.237 0 4.048-1.814 4.048-4.052 0-2.233-1.81-4.05-4.05-4.05h-4.048v8.102z"/><path clip-path="url(#e)" fill="#F4CFB3" d="M84.79 71.015H40.327v20.43H71.02L84.79 71.13"/><path clip-path="url(#e)" fill="#58595B" d="M-32.38 52.678h61.108v57.102h-61.11z"/><path clip-path="url(#e)" fill="#FFF" d="M28.73 52.678h14.11v57.102H28.73z"/><g opacity=".2" clip-path="url(#e)"><defs><path id="j" d="M-32.38 52.68h75.22v41.723h-75.22z"/></defs><clipPath id="k"><use xlink:href="#j" overflow="visible"/></clipPath><path clip-path="url(#k)" fill="#231F20" d="M-32.38 52.678h75.22v41.725h-75.22z"/></g><path clip-path="url(#e)" fill="#58595B" d="M19.016 72.11c0 5.365-4.354 9.715-9.72 9.715-5.364 0-9.714-4.35-9.714-9.715 0-5.367 4.35-9.717 9.715-9.717s9.72 4.35 9.72 9.717"/><g opacity=".4" clip-path="url(#e)"><path fill="#231F20" d="M158.805 78.345l-85.838 56.202c.69.593 1.578.947 2.545.947h80.748c2.2 0 3.988-1.836 3.988-4.102V81.5c0-1.27-.562-2.403-1.443-3.155z"/></g><path fill="none" d="M-32.38 0h216.487v184.108H-32.38z"/></svg>