<svg xmlns="http://www.w3.org/2000/svg" width="184.106" height="184.107" viewBox="0 0 184.106 184.107"><path fill="none" d="M48.602 102.627v29.347l6.98-29.347"/><path fill="#8B5E3C" d="M77.11 102.627H55.58l-6.978 29.346v3.752c15.73 3.854 28.54 15.114 34.528 29.88l7.39-31.16c2.173-5.637 5.222-10.838 8.98-15.438V95.945H85.432c-2.453 2.585-5.244 4.846-8.323 6.682z"/><path fill="#FFF" d="M128.003 87.383c8.875-5.294 15.445-14.02 17.93-24.337-2.772-2.62-5.165-5.64-7.077-8.972H116.49l-7.6 33.31h19.113z"/><path fill="#231F20" d="M145.952 63.064c.057-.237.1-.48.15-.717.07-.316.14-.633.2-.952.092-.472.17-.947.246-1.424.052-.33.106-.66.15-.995.065-.508.114-1.022.16-1.536.027-.3.063-.6.083-.9.057-.816.09-1.637.095-2.466h-8.18c1.912 3.33 4.305 6.35 7.078 8.972l.02.018z"/><path fill="#F66" d="M85.433 95.945H99.5v-8.562h-7.905c-1.665 3.134-3.74 6.01-6.162 8.562z"/><path fill="#C49A6C" d="M96.07 69.316h.073c-.004.83-.04 1.65-.094 2.466-.02.298-.056.59-.083.887-.047.52-.096 1.04-.163 1.554-.042.326-.096.647-.146.97-.077.49-.158.978-.252 1.46-.06.305-.124.607-.19.91-.055.246-.098.497-.156.742l-.02-.02c-.77 3.206-1.936 6.255-3.445 9.097h17.294l7.6-33.31H96.144v13.794c0 .49-.032.97-.073 1.45zm8.057 3.955c-1.04 0-1.883-.843-1.883-1.882 0-1.037.965-2.027 1.883-3.49.895 1.476 1.88 2.453 1.88 3.49 0 1.04-.84 1.883-1.88 1.883zm.067-13.36c1.61 0 2.918 1.305 2.918 2.916s-1.307 2.916-2.918 2.916c-1.61 0-2.916-1.305-2.916-2.916s1.307-2.916 2.916-2.916z"/><path fill="#603913" d="M87.963 69.316h8.107c.042-.48.073-.96.073-1.45V46.95H62.8v20.917c0 .49.033.97.074 1.45H87.963z"/><circle fill="#231F20" cx="104.194" cy="62.826" r="2.916"/><path fill="#603913" d="M83.13 165.606c-5.987-14.767-18.8-26.027-34.528-29.88v37.497c9.282 4.978 19.517 8.41 30.36 9.953l.434-1.826 3.734-15.744z"/><path fill="#FFF" d="M77.11 102.627c3.08-1.836 5.87-4.097 8.322-6.682 2.42-2.552 4.497-5.43 6.162-8.562 1.51-2.842 2.674-5.89 3.446-9.096-2.775-2.62-5.166-5.64-7.078-8.97H65.596l-7.598 33.31H77.11z"/><path fill="#231F20" d="M95.06 78.307c.058-.245.1-.496.155-.743.066-.302.13-.604.19-.908.094-.483.176-.97.252-1.46.05-.324.104-.645.146-.97.067-.516.116-1.035.163-1.556.027-.296.062-.59.082-.887.055-.816.09-1.637.094-2.466H87.963c1.912 3.33 4.303 6.35 7.078 8.97l.02.02z"/><path fill="#F66" d="M48.602 111.188V102.628h-8.9c-2.95 2.652-6.842 4.28-11.123 4.28-4.28 0-8.17-1.628-11.123-4.28H8.26l-1.894 8.182-.088.378h42.324z"/><path fill="#E6E7E8" d="M39.702 102.627h18.295l7.598-33.31H45.25v20.917c0 4.927-2.15 9.34-5.548 12.393zM53.3 75.152c1.61 0 2.917 1.307 2.917 2.916 0 1.61-1.307 2.918-2.918 2.918s-2.917-1.307-2.917-2.918c0-1.61 1.305-2.916 2.916-2.916zM17.457 102.627c-3.397-3.052-5.548-7.466-5.548-12.393v-2.952l-3.65 15.344h9.197z"/><path fill="#414042" d="M17.457 102.627c2.952 2.652 6.843 4.28 11.122 4.28 4.28 0 8.17-1.628 11.123-4.28 3.398-3.052 5.548-7.466 5.548-12.393V69.316H11.91v20.918c0 4.927 2.15 9.34 5.547 12.393z"/><circle fill="#231F20" cx="53.299" cy="78.069" r="2.917"/><path fill="#F66" d="M150.227 144.662c0 2.206 1.79 3.994 3.996 3.994 2.205 0 3.99-1.788 3.99-3.994v-3.37h-7.986v3.37z"/><path fill="#FFF" d="M155.207 104.547h-.024c.48 2.115.633 4.34.354 6.616-1.212 9.915-9.746 17.147-19.522 16.945-.65-.014-1.31-.06-1.97-.14-1.382-.17-2.708-.488-3.973-.925v9.514l4.734 4.734H159.854v-8.468c-2.73-2.596-5.09-5.582-6.976-8.87h6.975v-19.405h-4.646z"/><path fill="#E6E7E8" d="M99.5 119.007c-3.758 4.6-6.807 9.802-8.98 15.438l-7.39 31.16-3.734 15.745 6.256-26.304c.58-.035 1.164-.053 1.752-.053 14.992 0 27.34 11.3 29.006 25.85 2.378-.65 4.72-1.392 7.016-2.225l6.645-32.543-28.957-28.96c-.55.62-1.09 1.25-1.614 1.892zM130.07 127.043c-4.353-1.504-7.926-4.5-10.215-8.314-2.135-3.558-3.16-7.816-2.616-12.253.077-.643.188-1.272.327-1.892l-.328-.038c-4.108 2.144-7.91 4.786-11.35 7.83l24.18 24.18v-9.514zM101.16 117.064l4.487-4.472c-1.575 1.41-3.08 2.896-4.488 4.472z"/><path fill="#231F20" d="M134.608 94.563c-.775 3.217-1.217 6.56-1.333 9.984h9.495c-2.28-3.674-5.03-7.03-8.162-9.984z"/><path fill="#414042" d="M87.405 154.994c-.588 0-1.172.018-1.752.053l-6.256 26.304-.434 1.827c4.276.608 8.646.93 13.09.93 8.434 0 16.6-1.14 24.358-3.263-1.664-14.55-14.013-25.85-29.005-25.85zM119.855 118.73c2.29 3.812 5.862 6.81 10.216 8.313 1.266.437 2.592.755 3.974.924.66.08 1.318.127 1.97.14 9.776.203 18.31-7.03 19.522-16.944.28-2.276.128-4.5-.354-6.616h-37.61l-.007.038c-.14.62-.25 1.25-.328 1.892-.542 4.436.482 8.695 2.617 12.252zm29.015-4.246c1.605 0 2.905 1.305 2.905 2.908 0 1.607-1.3 2.908-2.905 2.908s-2.908-1.3-2.908-2.908c0-1.603 1.302-2.908 2.908-2.908z"/><circle fill="#231F20" cx="148.87" cy="117.393" r="2.908"/><path fill="#F66" d="M105.89 112.376l-.013-.013-.23.23-4.488 4.47-.05.05.003.004 28.958 28.96v-.02l.007.025 4.738-4.783-.023-.007h.015l-.002-.002-4.734-4.733"/><path fill="#231F20" d="M159.852 132.822v-8.87h-6.975c1.887 3.288 4.247 6.275 6.975 8.87z"/><path fill="#54616D" d="M48.602 135.726v-24.538H6.278l.088-.378-2.125 8.934c5.318 16.878 15.368 31.655 28.593 42.78 4.854 4.084 10.135 7.677 15.77 10.7V135.725z"/><path fill="#8FE8EA" d="M102.244 71.39c0 1.038.844 1.882 1.883 1.882s1.88-.844 1.88-1.883c0-1.038-.985-2.015-1.88-3.49-.918 1.462-1.883 2.452-1.883 3.49z"/></svg>
